REM DIRINDEX 1\6,1\2\7,1\2\8,1\2\9,1\3\10,1\3\11,1\4\12,1\4\13,1\4\14,1\5\15,1\5\16,1\5\17
REM DIRNAME folder01,folder02,folder03,folder04,folder05,folder06,folder07,folder08,folder09,folder10,folder11,folder12,folder13,folder14,folder15,folder16,folder17
TITLE ""
FILE "P2Q_t2_0143-0160.mp3" MP3
  TRACK 01 AUDIO
    TITLE "7:cjc040_4256"
    INDEX 01 00:00:00
  TRACK 02 AUDIO
    TITLE "0:"
    INDEX 01 00:00:74
  TRACK 03 AUDIO
    TITLE "8:cjc040_4257"
    INDEX 01 00:01:56
  TRACK 04 AUDIO
    TITLE "0:"
    INDEX 01 00:02:55
  TRACK 05 AUDIO
    TITLE "9:cjc040_4258"
    INDEX 01 00:03:41
  TRACK 06 AUDIO
    TITLE "0:"
    INDEX 01 00:04:54
  TRACK 07 AUDIO
    TITLE "7:cjc040_4259"
    INDEX 01 00:06:35
  TRACK 08 AUDIO
    TITLE "0:"
    INDEX 01 00:07:54
  TRACK 09 AUDIO
    TITLE "8:cjc040_4260"
    INDEX 01 00:08:36
  TRACK 10 AUDIO
    TITLE "0:"
    INDEX 01 00:09:38
  TRACK 11 AUDIO
    TITLE "9:cjc040_4261"
    INDEX 01 00:10:14
  TRACK 12 AUDIO
    TITLE "0:"
    INDEX 01 00:11:33
  TRACK 13 AUDIO
    TITLE "7:cjc040_4262"
    INDEX 01 00:13:18
  TRACK 14 AUDIO
    TITLE "0:"
    INDEX 01 00:14:19
  TRACK 15 AUDIO
    TITLE "8:cjc040_4263"
    INDEX 01 00:14:72
  TRACK 16 AUDIO
    TITLE "0:"
    INDEX 01 00:19:03
  TRACK 17 AUDIO
    TITLE "9:cjc040_4264"
    INDEX 01 00:19:54
  TRACK 18 AUDIO
    TITLE "0:"
    INDEX 01 00:20:59
  TRACK 19 AUDIO
    TITLE "7:cjc040_4265"
    INDEX 01 00:22:42
  TRACK 20 AUDIO
    TITLE "0:"
    INDEX 01 00:24:12
  TRACK 21 AUDIO
    TITLE "8:cjc040_4266"
    INDEX 01 00:24:63
  TRACK 22 AUDIO
    TITLE "0:"
    INDEX 01 00:25:72
  TRACK 23 AUDIO
    TITLE "9:cjc040_4267"
    INDEX 01 00:26:52
  TRACK 24 AUDIO
    TITLE "0:"
    INDEX 01 00:28:21
  TRACK 25 AUDIO
    TITLE "7:cjc040_4268"
    INDEX 01 00:30:05
  TRACK 26 AUDIO
    TITLE "0:"
    INDEX 01 00:31:06
  TRACK 27 AUDIO
    TITLE "8:cjc040_4269"
    INDEX 01 00:31:65
  TRACK 28 AUDIO
    TITLE "0:"
    INDEX 01 00:35:02
  TRACK 29 AUDIO
    TITLE "9:cjc040_4270"
    INDEX 01 00:35:55
  TRACK 30 AUDIO
    TITLE "0:"
    INDEX 01 00:36:60
  TRACK 31 AUDIO
    TITLE "7:cjc040_4271"
    INDEX 01 00:38:47
  TRACK 32 AUDIO
    TITLE "0:"
    INDEX 01 00:39:66
  TRACK 33 AUDIO
    TITLE "8:cjc040_4272"
    INDEX 01 00:40:50
  TRACK 34 AUDIO
    TITLE "0:"
    INDEX 01 00:42:63
  TRACK 35 AUDIO
    TITLE "9:cjc040_4273"
    INDEX 01 00:43:50
  TRACK 36 AUDIO
    TITLE "0:"
    INDEX 01 00:44:73
  TRACK 37 AUDIO
    TITLE "7:cjc040_4274"
    INDEX 01 00:46:54
  TRACK 38 AUDIO
    TITLE "0:"
    INDEX 01 00:47:68
  TRACK 39 AUDIO
    TITLE "8:cjc040_4275"
    INDEX 01 00:48:53
  TRACK 40 AUDIO
    TITLE "0:"
    INDEX 01 00:50:11
  TRACK 41 AUDIO
    TITLE "9:cjc040_4276"
    INDEX 01 00:50:72
  TRACK 42 AUDIO
    TITLE "0:"
    INDEX 01 00:52:18
  TRACK 43 AUDIO
    TITLE "7:cjc040_4277"
    INDEX 01 00:54:05
  TRACK 44 AUDIO
    TITLE "0:"
    INDEX 01 00:55:08
  TRACK 45 AUDIO
    TITLE "8:cjc040_4278"
    INDEX 01 00:55:67
  TRACK 46 AUDIO
    TITLE "0:"
    INDEX 01 00:59:30
  TRACK 47 AUDIO
    TITLE "9:cjc040_4279"
    INDEX 01 01:00:10
  TRACK 48 AUDIO
    TITLE "0:"
    INDEX 01 01:01:09
  TRACK 49 AUDIO
    TITLE "7:cjc040_4280"
    INDEX 01 01:02:67
  TRACK 50 AUDIO
    TITLE "0:"
    INDEX 01 01:03:65
  TRACK 51 AUDIO
    TITLE "8:cjc040_4281"
    INDEX 01 01:04:47
  TRACK 52 AUDIO
    TITLE "0:"
    INDEX 01 01:06:24
  TRACK 53 AUDIO
    TITLE "9:cjc040_4282"
    INDEX 01 01:07:08
  TRACK 54 AUDIO
    TITLE "0:"
    INDEX 01 01:08:09
  TRACK 55 AUDIO
    TITLE "7:cjc040_4283"
    INDEX 01 01:09:65
  TRACK 56 AUDIO
    TITLE "0:"
    INDEX 01 01:11:09
  TRACK 57 AUDIO
    TITLE "8:cjc040_4284"
    INDEX 01 01:11:58
  TRACK 58 AUDIO
    TITLE "0:"
    INDEX 01 01:13:57
  TRACK 59 AUDIO
    TITLE "9:cjc040_4285"
    INDEX 01 01:14:39
  TRACK 60 AUDIO
    TITLE "0:"
    INDEX 01 01:15:56
  TRACK 61 AUDIO
    TITLE "7:cjc040_4286"
    INDEX 01 01:17:35
  TRACK 62 AUDIO
    TITLE "0:"
    INDEX 01 01:18:56
  TRACK 63 AUDIO
    TITLE "8:cjc040_4287"
    INDEX 01 01:19:36
  TRACK 64 AUDIO
    TITLE "0:"
    INDEX 01 01:22:15
  TRACK 65 AUDIO
    TITLE "9:cjc040_4288"
    INDEX 01 01:22:74
  TRACK 66 AUDIO
    TITLE "0:"
    INDEX 01 01:24:14
  TRACK 67 AUDIO
    TITLE "7:cjc040_4289"
    INDEX 01 01:25:68
  TRACK 68 AUDIO
    TITLE "0:"
    INDEX 01 01:26:66
  TRACK 69 AUDIO
    TITLE "8:cjc040_4290"
    INDEX 01 01:27:46
  TRACK 70 AUDIO
    TITLE "0:"
    INDEX 01 01:31:20
  TRACK 71 AUDIO
    TITLE "9:cjc040_4291"
    INDEX 01 01:32:06
  TRACK 72 AUDIO
    TITLE "0:"
    INDEX 01 01:33:03
  TRACK 73 AUDIO
    TITLE "7:cjc040_4292"
    INDEX 01 01:34:63
  TRACK 74 AUDIO
    TITLE "0:"
    INDEX 01 01:35:71
  TRACK 75 AUDIO
    TITLE "8:cjc040_4293"
    INDEX 01 01:36:48
  TRACK 76 AUDIO
    TITLE "0:"
    INDEX 01 01:40:29
  TRACK 77 AUDIO
    TITLE "9:cjc040_4294"
    INDEX 01 01:41:05
  TRACK 78 AUDIO
    TITLE "0:"
    INDEX 01 01:42:12
  TRACK 79 AUDIO
    TITLE "7:cjc040_4295"
    INDEX 01 01:43:70
  TRACK 80 AUDIO
    TITLE "0:"
    INDEX 01 01:45:10
  TRACK 81 AUDIO
    TITLE "8:cjc040_4296"
    INDEX 01 01:45:71
  TRACK 82 AUDIO
    TITLE "0:"
    INDEX 01 01:47:01
  TRACK 83 AUDIO
    TITLE "9:cjc040_4297"
    INDEX 01 01:47:44
  TRACK 84 AUDIO
    TITLE "0:"
    INDEX 01 01:48:65
  TRACK 85 AUDIO
    TITLE "7:cjc040_4298"
    INDEX 01 01:50:53
  TRACK 86 AUDIO
    TITLE "0:"
    INDEX 01 01:51:56
  TRACK 87 AUDIO
    TITLE "8:cjc040_4299"
    INDEX 01 01:52:32
  TRACK 88 AUDIO
    TITLE "0:"
    INDEX 01 01:55:63
  TRACK 89 AUDIO
    TITLE "9:cjc040_4300"
    INDEX 01 01:56:41
  TRACK 90 AUDIO
    TITLE "0:"
    INDEX 01 01:57:47
  TRACK 91 AUDIO
    TITLE "7:cjc040_4301"
    INDEX 01 01:59:30
  TRACK 92 AUDIO
    TITLE "0:"
    INDEX 01 02:00:37
  TRACK 93 AUDIO
    TITLE "8:cjc040_4302"
    INDEX 01 02:01:19
  TRACK 94 AUDIO
    TITLE "0:"
    INDEX 01 02:02:54
  TRACK 95 AUDIO
    TITLE "9:cjc040_4303"
    INDEX 01 02:03:39
  TRACK 96 AUDIO
    TITLE "0:"
    INDEX 01 02:04:51
  TRACK 97 AUDIO
    TITLE "7:cjc040_4304"
    INDEX 01 02:06:38
  TRACK 98 AUDIO
    TITLE "0:"
    INDEX 01 02:07:57
  TRACK 99 AUDIO
    TITLE "8:cjc040_4305"
    INDEX 01 02:08:33
  TRACK 100 AUDIO
    TITLE "0:"
    INDEX 01 02:10:47
  TRACK 101 AUDIO
    TITLE "9:cjc040_4306"
    INDEX 01 02:11:21
  TRACK 102 AUDIO
    TITLE "0:"
    INDEX 01 02:12:44
  TRACK 103 AUDIO
    TITLE "7:cjc040_4307"
    INDEX 01 02:14:28
  TRACK 104 AUDIO
    TITLE "0:"
    INDEX 01 02:15:45
  TRACK 105 AUDIO
    TITLE "8:cjc040_4308"
    INDEX 01 02:16:28
  TRACK 106 AUDIO
    TITLE "0:"
    INDEX 01 02:20:20
  TRACK 107 AUDIO
    TITLE "9:cjc040_4309"
    INDEX 01 02:20:73
  TRACK 108 AUDIO
    TITLE "0:"
    INDEX 01 02:22:17
